<svg width="200" height="200" viewBox="0 0 200 200" xmlns="http://www.w3.org/2000/svg">
  <!-- Organic Floral Pattern - Monochrome Greens -->
  
  <!-- Background 'shadow' branches for depth -->
  <g fill="none" stroke="#388E3C" stroke-width="2" stroke-opacity="0.05" stroke-linecap="round" stroke-linejoin="round">
    <path d="M-20,180 Q30,150 50,100 T120,40" />
    <path d="M180,220 Q130,150 100,100 T40,20" />
  </g>

  <!-- Main Branches -->
  <g fill="none" stroke="#1B5E20" stroke-width="2.5" stroke-opacity="0.15" stroke-linecap="round" stroke-linejoin="round">
    <!-- Branch A: Bottom Left to Top Right -->
    <path d="M0,200 C40,160 20,100 60,60 S150,20 200,0" />
    <!-- Branch A Offshoots -->
    <path d="M40,140 Q60,130 70,110" />
    <path d="M100,50 Q120,70 140,60" />

    <!-- Branch B: Top Left to Bottom Right (for tiling density) -->
    <path d="M0,0 C50,40 20,80 60,120 S160,160 200,200" />
     <!-- Branch B Offshoots -->
    <path d="M50,60 Q70,50 80,30" />
    <path d="M110,150 Q130,130 150,140" />
  </g>

  <!-- Leaves (Mid Green) -->
  <g fill="#43A047" fill-opacity="0.12" stroke="none">
    <!-- Clusters along Branch A -->
    <path d="M60,60 Q50,50 60,40 Q70,50 60,60" /> 
    <path d="M80,110 Q70,100 80,90 Q90,100 80,110" />
    <path d="M150,50 Q140,40 150,30 Q160,40 150,50" />
    
    <!-- Clusters along Branch B -->
    <path d="M60,120 Q50,110 60,100 Q70,110 60,120" />
    <path d="M140,150 Q130,140 140,130 Q150,140 140,150" />
    <path d="M30,30 Q20,20 30,10 Q40,20 30,30" />
  </g>

  <!-- Flowers (Light Green / Pale Green to replace Pink) -->
  <g fill="#A5D6A7" fill-opacity="0.2" stroke="none">
    <!-- Flower shape: 5 petals roughly -->
    <circle cx="70" cy="110" r="8" />
    <circle cx="150" cy="60" r="8" />
    <circle cx="30" cy="170" r="6" />
    
    <circle cx="150" cy="140" r="8" />
    <circle cx="80" cy="30" r="6" />
    <circle cx="180" cy="180" r="7" />
  </g>

  <!-- Smaller distinct darker leaves -->
  <g fill="#2E7D32" fill-opacity="0.1">
      <ellipse cx="65" cy="55" rx="3" ry="6" transform="rotate(20 65 55)" />
      <ellipse cx="145" cy="145" rx="3" ry="6" transform="rotate(-20 145 145)" />
      <ellipse cx="40" cy="130" rx="3" ry="5" transform="rotate(45 40 130)" />
  </g>
</svg>
